%TF.GenerationSoftware,KiCad,Pcbnew,9.0.6*%
%TF.CreationDate,2025-12-01T09:05:12-05:00*%
%TF.ProjectId,Invernadero Automatizado,496e7665-726e-4616-9465-726f20417574,rev?*%
%TF.SameCoordinates,Original*%
%TF.FileFunction,Soldermask,Bot*%
%TF.FilePolarity,Negative*%
%FSLAX46Y46*%
G04 Gerber Fmt 4.6, Leading zero omitted, Abs format (unit mm)*
G04 Created by KiCad (PCBNEW 9.0.6) date 2025-12-01 09:05:12*
%MOMM*%
%LPD*%
G01*
G04 APERTURE LIST*
G04 Aperture macros list*
%AMRoundRect*
0 Rectangle with rounded corners*
0 $1 Rounding radius*
0 $2 $3 $4 $5 $6 $7 $8 $9 X,Y pos of 4 corners*
0 Add a 4 corners polygon primitive as box body*
4,1,4,$2,$3,$4,$5,$6,$7,$8,$9,$2,$3,0*
0 Add four circle primitives for the rounded corners*
1,1,$1+$1,$2,$3*
1,1,$1+$1,$4,$5*
1,1,$1+$1,$6,$7*
1,1,$1+$1,$8,$9*
0 Add four rect primitives between the rounded corners*
20,1,$1+$1,$2,$3,$4,$5,0*
20,1,$1+$1,$4,$5,$6,$7,0*
20,1,$1+$1,$6,$7,$8,$9,0*
20,1,$1+$1,$8,$9,$2,$3,0*%
G04 Aperture macros list end*
%ADD10R,1.700000X1.700000*%
%ADD11C,1.700000*%
%ADD12C,2.390000*%
%ADD13C,3.450000*%
%ADD14R,3.500000X3.500000*%
%ADD15RoundRect,0.750000X-0.750000X-1.000000X0.750000X-1.000000X0.750000X1.000000X-0.750000X1.000000X0*%
%ADD16RoundRect,0.875000X-0.875000X-0.875000X0.875000X-0.875000X0.875000X0.875000X-0.875000X0.875000X0*%
%ADD17C,2.100000*%
%ADD18C,1.524000*%
%ADD19C,3.000000*%
%ADD20RoundRect,0.102000X-1.000000X-1.000000X1.000000X-1.000000X1.000000X1.000000X-1.000000X1.000000X0*%
%ADD21C,2.204000*%
G04 APERTURE END LIST*
D10*
%TO.C,J8*%
X146000000Y-77500000D03*
D11*
X146000000Y-80040000D03*
%TD*%
D10*
%TO.C,J6*%
X102500000Y-81500000D03*
D11*
X102500000Y-84040000D03*
X102500000Y-86580000D03*
%TD*%
D10*
%TO.C,J9*%
X146500000Y-104040000D03*
D11*
X146500000Y-101500000D03*
%TD*%
D10*
%TO.C,J4*%
X102500000Y-113500000D03*
D11*
X102500000Y-116040000D03*
X102500000Y-118580000D03*
%TD*%
D12*
%TO.C,BT1*%
X87370000Y-129500000D03*
D13*
X95880000Y-145500000D03*
X151120000Y-129500000D03*
%TD*%
D10*
%TO.C,J12*%
X123525000Y-113975000D03*
D11*
X123525000Y-116515000D03*
X123525000Y-119055000D03*
%TD*%
D14*
%TO.C,J7*%
X92000000Y-108000000D03*
D15*
X86000000Y-108000000D03*
D16*
X89000000Y-112700000D03*
%TD*%
D10*
%TO.C,J10*%
X146500000Y-114000000D03*
D11*
X146500000Y-116540000D03*
%TD*%
D17*
%TO.C,REF\u002A\u002A*%
X81500000Y-53500000D03*
%TD*%
D10*
%TO.C,J1*%
X146000000Y-63500000D03*
D11*
X146000000Y-66040000D03*
X146000000Y-68580000D03*
%TD*%
D18*
%TO.C,U1*%
X81650000Y-80430000D03*
X84190000Y-80430000D03*
X86730000Y-80430000D03*
X89270000Y-80430000D03*
X91810000Y-80430000D03*
X94350000Y-80430000D03*
%TD*%
D10*
%TO.C,J3*%
X103000000Y-96500000D03*
D11*
X103000000Y-99040000D03*
X103000000Y-101580000D03*
%TD*%
D10*
%TO.C,J2*%
X146000000Y-87500000D03*
D11*
X146000000Y-90040000D03*
X146000000Y-92580000D03*
%TD*%
D17*
%TO.C,REF\u002A\u002A*%
X164000000Y-54000000D03*
%TD*%
D10*
%TO.C,J5*%
X102500000Y-69500000D03*
D11*
X102500000Y-66960000D03*
X102500000Y-64420000D03*
%TD*%
D17*
%TO.C,REF\u002A\u002A*%
X81000000Y-147500000D03*
%TD*%
%TO.C,REF\u002A\u002A*%
X166000000Y-147000000D03*
%TD*%
D19*
%TO.C,U2*%
X112720000Y-54500000D03*
X112720000Y-101450000D03*
X137230000Y-54500000D03*
X137230000Y-101450000D03*
D20*
X112300000Y-62460000D03*
D21*
X112300000Y-65000000D03*
X112300000Y-67540000D03*
X112300000Y-70080000D03*
X112300000Y-72620000D03*
X112300000Y-75160000D03*
X112300000Y-77700000D03*
X112300000Y-80240000D03*
X112300000Y-82780000D03*
X112300000Y-85320000D03*
X112300000Y-87860000D03*
X112300000Y-90400000D03*
X112300000Y-92940000D03*
X112300000Y-95480000D03*
X112300000Y-98020000D03*
X137700000Y-98020000D03*
X137700000Y-95480000D03*
X137700000Y-92940000D03*
X137700000Y-90400000D03*
X137700000Y-87860000D03*
X137700000Y-85320000D03*
X137700000Y-82780000D03*
X137700000Y-80240000D03*
X137700000Y-77700000D03*
X137700000Y-75160000D03*
X137700000Y-72620000D03*
X137700000Y-70080000D03*
X137700000Y-67540000D03*
X137700000Y-65000000D03*
X137700000Y-62460000D03*
%TD*%
M02*
