M48
; DRILL file {KiCad 9.0.6} date 2025-12-01T09:05:10-0500
; FORMAT={-:-/ absolute / metric / decimal}
; #@! TF.CreationDate,2025-12-01T09:05:10-05:00
; #@! TF.GenerationSoftware,Kicad,Pcbnew,9.0.6
; #@! TF.FileFunction,Plated,1,2,PTH
FMAT,2
METRIC
; #@! TA.AperFunction,Plated,PTH,ViaDrill
T1C0.650
; #@! TA.AperFunction,Plated,PTH,ComponentDrill
T2C0.762
; #@! TA.AperFunction,Plated,PTH,ComponentDrill
T3C1.000
; #@! TA.AperFunction,Plated,PTH,ComponentDrill
T4C1.020
%
G90
G05
T1
X81.5Y-130.0
X151.5Y-63.5
X151.5Y-84.5
X153.0Y-68.5
X154.0Y-91.5
X166.0Y-123.5
T2
X81.65Y-80.43
X84.19Y-80.43
X86.73Y-80.43
X89.27Y-80.43
X91.81Y-80.43
X94.35Y-80.43
T3
X102.5Y-64.42
X102.5Y-66.96
X102.5Y-69.5
X102.5Y-81.5
X102.5Y-84.04
X102.5Y-86.58
X102.5Y-113.5
X102.5Y-116.04
X102.5Y-118.58
X103.0Y-96.5
X103.0Y-99.04
X103.0Y-101.58
X123.525Y-113.975
X123.525Y-116.515
X123.525Y-119.055
X146.0Y-63.5
X146.0Y-66.04
X146.0Y-68.58
X146.0Y-77.5
X146.0Y-80.04
X146.0Y-87.5
X146.0Y-90.04
X146.0Y-92.58
X146.5Y-101.5
X146.5Y-104.04
X146.5Y-114.0
X146.5Y-116.54
T4
X112.3Y-62.46
X112.3Y-65.0
X112.3Y-67.54
X112.3Y-70.08
X112.3Y-72.62
X112.3Y-75.16
X112.3Y-77.7
X112.3Y-80.24
X112.3Y-82.78
X112.3Y-85.32
X112.3Y-87.86
X112.3Y-90.4
X112.3Y-92.94
X112.3Y-95.48
X112.3Y-98.02
X137.7Y-62.46
X137.7Y-65.0
X137.7Y-67.54
X137.7Y-70.08
X137.7Y-72.62
X137.7Y-75.16
X137.7Y-77.7
X137.7Y-80.24
X137.7Y-82.78
X137.7Y-85.32
X137.7Y-87.86
X137.7Y-90.4
X137.7Y-92.94
X137.7Y-95.48
X137.7Y-98.02
T3
G00X86.0Y-107.0
M15
G01X86.0Y-109.0
M16
G05
G00X88.0Y-112.7
M15
G01X90.0Y-112.7
M16
G05
G00X92.0Y-107.0
M15
G01X92.0Y-109.0
M16
G05
M30
