%TF.GenerationSoftware,KiCad,Pcbnew,9.0.6*%
%TF.CreationDate,2025-12-01T09:05:12-05:00*%
%TF.ProjectId,Invernadero Automatizado,496e7665-726e-4616-9465-726f20417574,rev?*%
%TF.SameCoordinates,Original*%
%TF.FileFunction,Legend,Top*%
%TF.FilePolarity,Positive*%
%FSLAX46Y46*%
G04 Gerber Fmt 4.6, Leading zero omitted, Abs format (unit mm)*
G04 Created by KiCad (PCBNEW 9.0.6) date 2025-12-01 09:05:12*
%MOMM*%
%LPD*%
G01*
G04 APERTURE LIST*
%ADD10C,0.150000*%
%ADD11C,0.120000*%
%ADD12C,0.127000*%
%ADD13C,0.200000*%
G04 APERTURE END LIST*
D10*
X145666666Y-74574819D02*
X145666666Y-75289104D01*
X145666666Y-75289104D02*
X145619047Y-75431961D01*
X145619047Y-75431961D02*
X145523809Y-75527200D01*
X145523809Y-75527200D02*
X145380952Y-75574819D01*
X145380952Y-75574819D02*
X145285714Y-75574819D01*
X146285714Y-75003390D02*
X146190476Y-74955771D01*
X146190476Y-74955771D02*
X146142857Y-74908152D01*
X146142857Y-74908152D02*
X146095238Y-74812914D01*
X146095238Y-74812914D02*
X146095238Y-74765295D01*
X146095238Y-74765295D02*
X146142857Y-74670057D01*
X146142857Y-74670057D02*
X146190476Y-74622438D01*
X146190476Y-74622438D02*
X146285714Y-74574819D01*
X146285714Y-74574819D02*
X146476190Y-74574819D01*
X146476190Y-74574819D02*
X146571428Y-74622438D01*
X146571428Y-74622438D02*
X146619047Y-74670057D01*
X146619047Y-74670057D02*
X146666666Y-74765295D01*
X146666666Y-74765295D02*
X146666666Y-74812914D01*
X146666666Y-74812914D02*
X146619047Y-74908152D01*
X146619047Y-74908152D02*
X146571428Y-74955771D01*
X146571428Y-74955771D02*
X146476190Y-75003390D01*
X146476190Y-75003390D02*
X146285714Y-75003390D01*
X146285714Y-75003390D02*
X146190476Y-75051009D01*
X146190476Y-75051009D02*
X146142857Y-75098628D01*
X146142857Y-75098628D02*
X146095238Y-75193866D01*
X146095238Y-75193866D02*
X146095238Y-75384342D01*
X146095238Y-75384342D02*
X146142857Y-75479580D01*
X146142857Y-75479580D02*
X146190476Y-75527200D01*
X146190476Y-75527200D02*
X146285714Y-75574819D01*
X146285714Y-75574819D02*
X146476190Y-75574819D01*
X146476190Y-75574819D02*
X146571428Y-75527200D01*
X146571428Y-75527200D02*
X146619047Y-75479580D01*
X146619047Y-75479580D02*
X146666666Y-75384342D01*
X146666666Y-75384342D02*
X146666666Y-75193866D01*
X146666666Y-75193866D02*
X146619047Y-75098628D01*
X146619047Y-75098628D02*
X146571428Y-75051009D01*
X146571428Y-75051009D02*
X146476190Y-75003390D01*
X102166666Y-78184819D02*
X102166666Y-78899104D01*
X102166666Y-78899104D02*
X102119047Y-79041961D01*
X102119047Y-79041961D02*
X102023809Y-79137200D01*
X102023809Y-79137200D02*
X101880952Y-79184819D01*
X101880952Y-79184819D02*
X101785714Y-79184819D01*
X103071428Y-78184819D02*
X102880952Y-78184819D01*
X102880952Y-78184819D02*
X102785714Y-78232438D01*
X102785714Y-78232438D02*
X102738095Y-78280057D01*
X102738095Y-78280057D02*
X102642857Y-78422914D01*
X102642857Y-78422914D02*
X102595238Y-78613390D01*
X102595238Y-78613390D02*
X102595238Y-78994342D01*
X102595238Y-78994342D02*
X102642857Y-79089580D01*
X102642857Y-79089580D02*
X102690476Y-79137200D01*
X102690476Y-79137200D02*
X102785714Y-79184819D01*
X102785714Y-79184819D02*
X102976190Y-79184819D01*
X102976190Y-79184819D02*
X103071428Y-79137200D01*
X103071428Y-79137200D02*
X103119047Y-79089580D01*
X103119047Y-79089580D02*
X103166666Y-78994342D01*
X103166666Y-78994342D02*
X103166666Y-78756247D01*
X103166666Y-78756247D02*
X103119047Y-78661009D01*
X103119047Y-78661009D02*
X103071428Y-78613390D01*
X103071428Y-78613390D02*
X102976190Y-78565771D01*
X102976190Y-78565771D02*
X102785714Y-78565771D01*
X102785714Y-78565771D02*
X102690476Y-78613390D01*
X102690476Y-78613390D02*
X102642857Y-78661009D01*
X102642857Y-78661009D02*
X102595238Y-78756247D01*
X146166666Y-105874819D02*
X146166666Y-106589104D01*
X146166666Y-106589104D02*
X146119047Y-106731961D01*
X146119047Y-106731961D02*
X146023809Y-106827200D01*
X146023809Y-106827200D02*
X145880952Y-106874819D01*
X145880952Y-106874819D02*
X145785714Y-106874819D01*
X146690476Y-106874819D02*
X146880952Y-106874819D01*
X146880952Y-106874819D02*
X146976190Y-106827200D01*
X146976190Y-106827200D02*
X147023809Y-106779580D01*
X147023809Y-106779580D02*
X147119047Y-106636723D01*
X147119047Y-106636723D02*
X147166666Y-106446247D01*
X147166666Y-106446247D02*
X147166666Y-106065295D01*
X147166666Y-106065295D02*
X147119047Y-105970057D01*
X147119047Y-105970057D02*
X147071428Y-105922438D01*
X147071428Y-105922438D02*
X146976190Y-105874819D01*
X146976190Y-105874819D02*
X146785714Y-105874819D01*
X146785714Y-105874819D02*
X146690476Y-105922438D01*
X146690476Y-105922438D02*
X146642857Y-105970057D01*
X146642857Y-105970057D02*
X146595238Y-106065295D01*
X146595238Y-106065295D02*
X146595238Y-106303390D01*
X146595238Y-106303390D02*
X146642857Y-106398628D01*
X146642857Y-106398628D02*
X146690476Y-106446247D01*
X146690476Y-106446247D02*
X146785714Y-106493866D01*
X146785714Y-106493866D02*
X146976190Y-106493866D01*
X146976190Y-106493866D02*
X147071428Y-106446247D01*
X147071428Y-106446247D02*
X147119047Y-106398628D01*
X147119047Y-106398628D02*
X147166666Y-106303390D01*
X102166666Y-110184819D02*
X102166666Y-110899104D01*
X102166666Y-110899104D02*
X102119047Y-111041961D01*
X102119047Y-111041961D02*
X102023809Y-111137200D01*
X102023809Y-111137200D02*
X101880952Y-111184819D01*
X101880952Y-111184819D02*
X101785714Y-111184819D01*
X103071428Y-110518152D02*
X103071428Y-111184819D01*
X102833333Y-110137200D02*
X102595238Y-110851485D01*
X102595238Y-110851485D02*
X103214285Y-110851485D01*
X122714285Y-125901009D02*
X122857142Y-125948628D01*
X122857142Y-125948628D02*
X122904761Y-125996247D01*
X122904761Y-125996247D02*
X122952380Y-126091485D01*
X122952380Y-126091485D02*
X122952380Y-126234342D01*
X122952380Y-126234342D02*
X122904761Y-126329580D01*
X122904761Y-126329580D02*
X122857142Y-126377200D01*
X122857142Y-126377200D02*
X122761904Y-126424819D01*
X122761904Y-126424819D02*
X122380952Y-126424819D01*
X122380952Y-126424819D02*
X122380952Y-125424819D01*
X122380952Y-125424819D02*
X122714285Y-125424819D01*
X122714285Y-125424819D02*
X122809523Y-125472438D01*
X122809523Y-125472438D02*
X122857142Y-125520057D01*
X122857142Y-125520057D02*
X122904761Y-125615295D01*
X122904761Y-125615295D02*
X122904761Y-125710533D01*
X122904761Y-125710533D02*
X122857142Y-125805771D01*
X122857142Y-125805771D02*
X122809523Y-125853390D01*
X122809523Y-125853390D02*
X122714285Y-125901009D01*
X122714285Y-125901009D02*
X122380952Y-125901009D01*
X123238095Y-125424819D02*
X123809523Y-125424819D01*
X123523809Y-126424819D02*
X123523809Y-125424819D01*
X124666666Y-126424819D02*
X124095238Y-126424819D01*
X124380952Y-126424819D02*
X124380952Y-125424819D01*
X124380952Y-125424819D02*
X124285714Y-125567676D01*
X124285714Y-125567676D02*
X124190476Y-125662914D01*
X124190476Y-125662914D02*
X124095238Y-125710533D01*
X82738095Y-132655533D02*
X84261905Y-132655533D01*
X83500000Y-133417438D02*
X83500000Y-131893628D01*
X122715476Y-110659819D02*
X122715476Y-111374104D01*
X122715476Y-111374104D02*
X122667857Y-111516961D01*
X122667857Y-111516961D02*
X122572619Y-111612200D01*
X122572619Y-111612200D02*
X122429762Y-111659819D01*
X122429762Y-111659819D02*
X122334524Y-111659819D01*
X123715476Y-111659819D02*
X123144048Y-111659819D01*
X123429762Y-111659819D02*
X123429762Y-110659819D01*
X123429762Y-110659819D02*
X123334524Y-110802676D01*
X123334524Y-110802676D02*
X123239286Y-110897914D01*
X123239286Y-110897914D02*
X123144048Y-110945533D01*
X124096429Y-110755057D02*
X124144048Y-110707438D01*
X124144048Y-110707438D02*
X124239286Y-110659819D01*
X124239286Y-110659819D02*
X124477381Y-110659819D01*
X124477381Y-110659819D02*
X124572619Y-110707438D01*
X124572619Y-110707438D02*
X124620238Y-110755057D01*
X124620238Y-110755057D02*
X124667857Y-110850295D01*
X124667857Y-110850295D02*
X124667857Y-110945533D01*
X124667857Y-110945533D02*
X124620238Y-111088390D01*
X124620238Y-111088390D02*
X124048810Y-111659819D01*
X124048810Y-111659819D02*
X124667857Y-111659819D01*
X83216666Y-113204819D02*
X83216666Y-113919104D01*
X83216666Y-113919104D02*
X83169047Y-114061961D01*
X83169047Y-114061961D02*
X83073809Y-114157200D01*
X83073809Y-114157200D02*
X82930952Y-114204819D01*
X82930952Y-114204819D02*
X82835714Y-114204819D01*
X83597619Y-113204819D02*
X84264285Y-113204819D01*
X84264285Y-113204819D02*
X83835714Y-114204819D01*
X145690476Y-111074819D02*
X145690476Y-111789104D01*
X145690476Y-111789104D02*
X145642857Y-111931961D01*
X145642857Y-111931961D02*
X145547619Y-112027200D01*
X145547619Y-112027200D02*
X145404762Y-112074819D01*
X145404762Y-112074819D02*
X145309524Y-112074819D01*
X146690476Y-112074819D02*
X146119048Y-112074819D01*
X146404762Y-112074819D02*
X146404762Y-111074819D01*
X146404762Y-111074819D02*
X146309524Y-111217676D01*
X146309524Y-111217676D02*
X146214286Y-111312914D01*
X146214286Y-111312914D02*
X146119048Y-111360533D01*
X147309524Y-111074819D02*
X147404762Y-111074819D01*
X147404762Y-111074819D02*
X147500000Y-111122438D01*
X147500000Y-111122438D02*
X147547619Y-111170057D01*
X147547619Y-111170057D02*
X147595238Y-111265295D01*
X147595238Y-111265295D02*
X147642857Y-111455771D01*
X147642857Y-111455771D02*
X147642857Y-111693866D01*
X147642857Y-111693866D02*
X147595238Y-111884342D01*
X147595238Y-111884342D02*
X147547619Y-111979580D01*
X147547619Y-111979580D02*
X147500000Y-112027200D01*
X147500000Y-112027200D02*
X147404762Y-112074819D01*
X147404762Y-112074819D02*
X147309524Y-112074819D01*
X147309524Y-112074819D02*
X147214286Y-112027200D01*
X147214286Y-112027200D02*
X147166667Y-111979580D01*
X147166667Y-111979580D02*
X147119048Y-111884342D01*
X147119048Y-111884342D02*
X147071429Y-111693866D01*
X147071429Y-111693866D02*
X147071429Y-111455771D01*
X147071429Y-111455771D02*
X147119048Y-111265295D01*
X147119048Y-111265295D02*
X147166667Y-111170057D01*
X147166667Y-111170057D02*
X147214286Y-111122438D01*
X147214286Y-111122438D02*
X147309524Y-111074819D01*
X80166666Y-50904819D02*
X79833333Y-50428628D01*
X79595238Y-50904819D02*
X79595238Y-49904819D01*
X79595238Y-49904819D02*
X79976190Y-49904819D01*
X79976190Y-49904819D02*
X80071428Y-49952438D01*
X80071428Y-49952438D02*
X80119047Y-50000057D01*
X80119047Y-50000057D02*
X80166666Y-50095295D01*
X80166666Y-50095295D02*
X80166666Y-50238152D01*
X80166666Y-50238152D02*
X80119047Y-50333390D01*
X80119047Y-50333390D02*
X80071428Y-50381009D01*
X80071428Y-50381009D02*
X79976190Y-50428628D01*
X79976190Y-50428628D02*
X79595238Y-50428628D01*
X80595238Y-50381009D02*
X80928571Y-50381009D01*
X81071428Y-50904819D02*
X80595238Y-50904819D01*
X80595238Y-50904819D02*
X80595238Y-49904819D01*
X80595238Y-49904819D02*
X81071428Y-49904819D01*
X81833333Y-50381009D02*
X81500000Y-50381009D01*
X81500000Y-50904819D02*
X81500000Y-49904819D01*
X81500000Y-49904819D02*
X81976190Y-49904819D01*
X82500000Y-49904819D02*
X82500000Y-50142914D01*
X82261905Y-50047676D02*
X82500000Y-50142914D01*
X82500000Y-50142914D02*
X82738095Y-50047676D01*
X82357143Y-50333390D02*
X82500000Y-50142914D01*
X82500000Y-50142914D02*
X82642857Y-50333390D01*
X83261905Y-49904819D02*
X83261905Y-50142914D01*
X83023810Y-50047676D02*
X83261905Y-50142914D01*
X83261905Y-50142914D02*
X83500000Y-50047676D01*
X83119048Y-50333390D02*
X83261905Y-50142914D01*
X83261905Y-50142914D02*
X83404762Y-50333390D01*
X145666666Y-60574819D02*
X145666666Y-61289104D01*
X145666666Y-61289104D02*
X145619047Y-61431961D01*
X145619047Y-61431961D02*
X145523809Y-61527200D01*
X145523809Y-61527200D02*
X145380952Y-61574819D01*
X145380952Y-61574819D02*
X145285714Y-61574819D01*
X146666666Y-61574819D02*
X146095238Y-61574819D01*
X146380952Y-61574819D02*
X146380952Y-60574819D01*
X146380952Y-60574819D02*
X146285714Y-60717676D01*
X146285714Y-60717676D02*
X146190476Y-60812914D01*
X146190476Y-60812914D02*
X146095238Y-60860533D01*
X87238095Y-69224819D02*
X87238095Y-70034342D01*
X87238095Y-70034342D02*
X87285714Y-70129580D01*
X87285714Y-70129580D02*
X87333333Y-70177200D01*
X87333333Y-70177200D02*
X87428571Y-70224819D01*
X87428571Y-70224819D02*
X87619047Y-70224819D01*
X87619047Y-70224819D02*
X87714285Y-70177200D01*
X87714285Y-70177200D02*
X87761904Y-70129580D01*
X87761904Y-70129580D02*
X87809523Y-70034342D01*
X87809523Y-70034342D02*
X87809523Y-69224819D01*
X88809523Y-70224819D02*
X88238095Y-70224819D01*
X88523809Y-70224819D02*
X88523809Y-69224819D01*
X88523809Y-69224819D02*
X88428571Y-69367676D01*
X88428571Y-69367676D02*
X88333333Y-69462914D01*
X88333333Y-69462914D02*
X88238095Y-69510533D01*
X102666666Y-93184819D02*
X102666666Y-93899104D01*
X102666666Y-93899104D02*
X102619047Y-94041961D01*
X102619047Y-94041961D02*
X102523809Y-94137200D01*
X102523809Y-94137200D02*
X102380952Y-94184819D01*
X102380952Y-94184819D02*
X102285714Y-94184819D01*
X103047619Y-93184819D02*
X103666666Y-93184819D01*
X103666666Y-93184819D02*
X103333333Y-93565771D01*
X103333333Y-93565771D02*
X103476190Y-93565771D01*
X103476190Y-93565771D02*
X103571428Y-93613390D01*
X103571428Y-93613390D02*
X103619047Y-93661009D01*
X103619047Y-93661009D02*
X103666666Y-93756247D01*
X103666666Y-93756247D02*
X103666666Y-93994342D01*
X103666666Y-93994342D02*
X103619047Y-94089580D01*
X103619047Y-94089580D02*
X103571428Y-94137200D01*
X103571428Y-94137200D02*
X103476190Y-94184819D01*
X103476190Y-94184819D02*
X103190476Y-94184819D01*
X103190476Y-94184819D02*
X103095238Y-94137200D01*
X103095238Y-94137200D02*
X103047619Y-94089580D01*
X145666666Y-84574819D02*
X145666666Y-85289104D01*
X145666666Y-85289104D02*
X145619047Y-85431961D01*
X145619047Y-85431961D02*
X145523809Y-85527200D01*
X145523809Y-85527200D02*
X145380952Y-85574819D01*
X145380952Y-85574819D02*
X145285714Y-85574819D01*
X146095238Y-84670057D02*
X146142857Y-84622438D01*
X146142857Y-84622438D02*
X146238095Y-84574819D01*
X146238095Y-84574819D02*
X146476190Y-84574819D01*
X146476190Y-84574819D02*
X146571428Y-84622438D01*
X146571428Y-84622438D02*
X146619047Y-84670057D01*
X146619047Y-84670057D02*
X146666666Y-84765295D01*
X146666666Y-84765295D02*
X146666666Y-84860533D01*
X146666666Y-84860533D02*
X146619047Y-85003390D01*
X146619047Y-85003390D02*
X146047619Y-85574819D01*
X146047619Y-85574819D02*
X146666666Y-85574819D01*
X162666666Y-51404819D02*
X162333333Y-50928628D01*
X162095238Y-51404819D02*
X162095238Y-50404819D01*
X162095238Y-50404819D02*
X162476190Y-50404819D01*
X162476190Y-50404819D02*
X162571428Y-50452438D01*
X162571428Y-50452438D02*
X162619047Y-50500057D01*
X162619047Y-50500057D02*
X162666666Y-50595295D01*
X162666666Y-50595295D02*
X162666666Y-50738152D01*
X162666666Y-50738152D02*
X162619047Y-50833390D01*
X162619047Y-50833390D02*
X162571428Y-50881009D01*
X162571428Y-50881009D02*
X162476190Y-50928628D01*
X162476190Y-50928628D02*
X162095238Y-50928628D01*
X163095238Y-50881009D02*
X163428571Y-50881009D01*
X163571428Y-51404819D02*
X163095238Y-51404819D01*
X163095238Y-51404819D02*
X163095238Y-50404819D01*
X163095238Y-50404819D02*
X163571428Y-50404819D01*
X164333333Y-50881009D02*
X164000000Y-50881009D01*
X164000000Y-51404819D02*
X164000000Y-50404819D01*
X164000000Y-50404819D02*
X164476190Y-50404819D01*
X165000000Y-50404819D02*
X165000000Y-50642914D01*
X164761905Y-50547676D02*
X165000000Y-50642914D01*
X165000000Y-50642914D02*
X165238095Y-50547676D01*
X164857143Y-50833390D02*
X165000000Y-50642914D01*
X165000000Y-50642914D02*
X165142857Y-50833390D01*
X165761905Y-50404819D02*
X165761905Y-50642914D01*
X165523810Y-50547676D02*
X165761905Y-50642914D01*
X165761905Y-50642914D02*
X166000000Y-50547676D01*
X165619048Y-50833390D02*
X165761905Y-50642914D01*
X165761905Y-50642914D02*
X165904762Y-50833390D01*
X102166666Y-71724819D02*
X102166666Y-72439104D01*
X102166666Y-72439104D02*
X102119047Y-72581961D01*
X102119047Y-72581961D02*
X102023809Y-72677200D01*
X102023809Y-72677200D02*
X101880952Y-72724819D01*
X101880952Y-72724819D02*
X101785714Y-72724819D01*
X103119047Y-71724819D02*
X102642857Y-71724819D01*
X102642857Y-71724819D02*
X102595238Y-72201009D01*
X102595238Y-72201009D02*
X102642857Y-72153390D01*
X102642857Y-72153390D02*
X102738095Y-72105771D01*
X102738095Y-72105771D02*
X102976190Y-72105771D01*
X102976190Y-72105771D02*
X103071428Y-72153390D01*
X103071428Y-72153390D02*
X103119047Y-72201009D01*
X103119047Y-72201009D02*
X103166666Y-72296247D01*
X103166666Y-72296247D02*
X103166666Y-72534342D01*
X103166666Y-72534342D02*
X103119047Y-72629580D01*
X103119047Y-72629580D02*
X103071428Y-72677200D01*
X103071428Y-72677200D02*
X102976190Y-72724819D01*
X102976190Y-72724819D02*
X102738095Y-72724819D01*
X102738095Y-72724819D02*
X102642857Y-72677200D01*
X102642857Y-72677200D02*
X102595238Y-72629580D01*
X79666666Y-144904819D02*
X79333333Y-144428628D01*
X79095238Y-144904819D02*
X79095238Y-143904819D01*
X79095238Y-143904819D02*
X79476190Y-143904819D01*
X79476190Y-143904819D02*
X79571428Y-143952438D01*
X79571428Y-143952438D02*
X79619047Y-144000057D01*
X79619047Y-144000057D02*
X79666666Y-144095295D01*
X79666666Y-144095295D02*
X79666666Y-144238152D01*
X79666666Y-144238152D02*
X79619047Y-144333390D01*
X79619047Y-144333390D02*
X79571428Y-144381009D01*
X79571428Y-144381009D02*
X79476190Y-144428628D01*
X79476190Y-144428628D02*
X79095238Y-144428628D01*
X80095238Y-144381009D02*
X80428571Y-144381009D01*
X80571428Y-144904819D02*
X80095238Y-144904819D01*
X80095238Y-144904819D02*
X80095238Y-143904819D01*
X80095238Y-143904819D02*
X80571428Y-143904819D01*
X81333333Y-144381009D02*
X81000000Y-144381009D01*
X81000000Y-144904819D02*
X81000000Y-143904819D01*
X81000000Y-143904819D02*
X81476190Y-143904819D01*
X82000000Y-143904819D02*
X82000000Y-144142914D01*
X81761905Y-144047676D02*
X82000000Y-144142914D01*
X82000000Y-144142914D02*
X82238095Y-144047676D01*
X81857143Y-144333390D02*
X82000000Y-144142914D01*
X82000000Y-144142914D02*
X82142857Y-144333390D01*
X82761905Y-143904819D02*
X82761905Y-144142914D01*
X82523810Y-144047676D02*
X82761905Y-144142914D01*
X82761905Y-144142914D02*
X83000000Y-144047676D01*
X82619048Y-144333390D02*
X82761905Y-144142914D01*
X82761905Y-144142914D02*
X82904762Y-144333390D01*
X164666666Y-144404819D02*
X164333333Y-143928628D01*
X164095238Y-144404819D02*
X164095238Y-143404819D01*
X164095238Y-143404819D02*
X164476190Y-143404819D01*
X164476190Y-143404819D02*
X164571428Y-143452438D01*
X164571428Y-143452438D02*
X164619047Y-143500057D01*
X164619047Y-143500057D02*
X164666666Y-143595295D01*
X164666666Y-143595295D02*
X164666666Y-143738152D01*
X164666666Y-143738152D02*
X164619047Y-143833390D01*
X164619047Y-143833390D02*
X164571428Y-143881009D01*
X164571428Y-143881009D02*
X164476190Y-143928628D01*
X164476190Y-143928628D02*
X164095238Y-143928628D01*
X165095238Y-143881009D02*
X165428571Y-143881009D01*
X165571428Y-144404819D02*
X165095238Y-144404819D01*
X165095238Y-144404819D02*
X165095238Y-143404819D01*
X165095238Y-143404819D02*
X165571428Y-143404819D01*
X166333333Y-143881009D02*
X166000000Y-143881009D01*
X166000000Y-144404819D02*
X166000000Y-143404819D01*
X166000000Y-143404819D02*
X166476190Y-143404819D01*
X167000000Y-143404819D02*
X167000000Y-143642914D01*
X166761905Y-143547676D02*
X167000000Y-143642914D01*
X167000000Y-143642914D02*
X167238095Y-143547676D01*
X166857143Y-143833390D02*
X167000000Y-143642914D01*
X167000000Y-143642914D02*
X167142857Y-143833390D01*
X167761905Y-143404819D02*
X167761905Y-143642914D01*
X167523810Y-143547676D02*
X167761905Y-143642914D01*
X167761905Y-143642914D02*
X168000000Y-143547676D01*
X167619048Y-143833390D02*
X167761905Y-143642914D01*
X167761905Y-143642914D02*
X167904762Y-143833390D01*
X112883095Y-50069819D02*
X112883095Y-50879342D01*
X112883095Y-50879342D02*
X112930714Y-50974580D01*
X112930714Y-50974580D02*
X112978333Y-51022200D01*
X112978333Y-51022200D02*
X113073571Y-51069819D01*
X113073571Y-51069819D02*
X113264047Y-51069819D01*
X113264047Y-51069819D02*
X113359285Y-51022200D01*
X113359285Y-51022200D02*
X113406904Y-50974580D01*
X113406904Y-50974580D02*
X113454523Y-50879342D01*
X113454523Y-50879342D02*
X113454523Y-50069819D01*
X113883095Y-50165057D02*
X113930714Y-50117438D01*
X113930714Y-50117438D02*
X114025952Y-50069819D01*
X114025952Y-50069819D02*
X114264047Y-50069819D01*
X114264047Y-50069819D02*
X114359285Y-50117438D01*
X114359285Y-50117438D02*
X114406904Y-50165057D01*
X114406904Y-50165057D02*
X114454523Y-50260295D01*
X114454523Y-50260295D02*
X114454523Y-50355533D01*
X114454523Y-50355533D02*
X114406904Y-50498390D01*
X114406904Y-50498390D02*
X113835476Y-51069819D01*
X113835476Y-51069819D02*
X114454523Y-51069819D01*
D11*
%TO.C,J8*%
X144620000Y-76120000D02*
X146000000Y-76120000D01*
X144620000Y-77500000D02*
X144620000Y-76120000D01*
X144620000Y-78770000D02*
X144620000Y-81420000D01*
X144620000Y-78770000D02*
X147380000Y-78770000D01*
X144620000Y-81420000D02*
X147380000Y-81420000D01*
X147380000Y-78770000D02*
X147380000Y-81420000D01*
%TO.C,J6*%
X101170000Y-82770000D02*
X101170000Y-87910000D01*
X101170000Y-82770000D02*
X103830000Y-82770000D01*
X101170000Y-87910000D02*
X103830000Y-87910000D01*
X102500000Y-80170000D02*
X103830000Y-80170000D01*
X103830000Y-80170000D02*
X103830000Y-81500000D01*
X103830000Y-82770000D02*
X103830000Y-87910000D01*
%TO.C,J9*%
X145120000Y-102770000D02*
X145120000Y-100120000D01*
X147880000Y-100120000D02*
X145120000Y-100120000D01*
X147880000Y-102770000D02*
X145120000Y-102770000D01*
X147880000Y-102770000D02*
X147880000Y-100120000D01*
X147880000Y-104040000D02*
X147880000Y-105420000D01*
X147880000Y-105420000D02*
X146500000Y-105420000D01*
%TO.C,J4*%
X101170000Y-114770000D02*
X101170000Y-119910000D01*
X101170000Y-114770000D02*
X103830000Y-114770000D01*
X101170000Y-119910000D02*
X103830000Y-119910000D01*
X102500000Y-112170000D02*
X103830000Y-112170000D01*
X103830000Y-112170000D02*
X103830000Y-113500000D01*
X103830000Y-114770000D02*
X103830000Y-119910000D01*
%TO.C,BT1*%
X84610000Y-126815000D02*
X162390000Y-126815000D01*
X84610000Y-133990000D02*
X84610000Y-126815000D01*
X84610000Y-148185000D02*
X84610000Y-141010000D01*
X162390000Y-126815000D02*
X162390000Y-133990000D01*
X162390000Y-141010000D02*
X162390000Y-148185000D01*
X162390000Y-148185000D02*
X84610000Y-148185000D01*
%TO.C,J12*%
X122195000Y-115245000D02*
X122195000Y-120385000D01*
X122195000Y-115245000D02*
X124855000Y-115245000D01*
X122195000Y-120385000D02*
X124855000Y-120385000D01*
X123525000Y-112645000D02*
X124855000Y-112645000D01*
X124855000Y-112645000D02*
X124855000Y-113975000D01*
X124855000Y-115245000D02*
X124855000Y-120385000D01*
%TO.C,J7*%
X78200000Y-103400000D02*
X92900000Y-103400000D01*
X78200000Y-112600000D02*
X78200000Y-103400000D01*
X87000000Y-112600000D02*
X78200000Y-112600000D01*
X92050000Y-103200000D02*
X93100000Y-103200000D01*
X92900000Y-103400000D02*
X92900000Y-106000000D01*
X92900000Y-109900000D02*
X92900000Y-112600000D01*
X92900000Y-112600000D02*
X91000000Y-112600000D01*
X93100000Y-104250000D02*
X93100000Y-103200000D01*
%TO.C,J10*%
X145120000Y-112620000D02*
X146500000Y-112620000D01*
X145120000Y-114000000D02*
X145120000Y-112620000D01*
X145120000Y-115270000D02*
X145120000Y-117920000D01*
X145120000Y-115270000D02*
X147880000Y-115270000D01*
X145120000Y-117920000D02*
X147880000Y-117920000D01*
X147880000Y-115270000D02*
X147880000Y-117920000D01*
%TO.C,J1*%
X144620000Y-62120000D02*
X146000000Y-62120000D01*
X144620000Y-63500000D02*
X144620000Y-62120000D01*
X144620000Y-64770000D02*
X144620000Y-69960000D01*
X144620000Y-64770000D02*
X147380000Y-64770000D01*
X144620000Y-69960000D02*
X147380000Y-69960000D01*
X147380000Y-64770000D02*
X147380000Y-69960000D01*
%TO.C,U1*%
X80380000Y-56300000D02*
X95620000Y-56300000D01*
X95620000Y-81700000D01*
X80380000Y-81700000D01*
X80380000Y-56300000D01*
%TO.C,J3*%
X101670000Y-97770000D02*
X101670000Y-102910000D01*
X101670000Y-97770000D02*
X104330000Y-97770000D01*
X101670000Y-102910000D02*
X104330000Y-102910000D01*
X103000000Y-95170000D02*
X104330000Y-95170000D01*
X104330000Y-95170000D02*
X104330000Y-96500000D01*
X104330000Y-97770000D02*
X104330000Y-102910000D01*
%TO.C,J2*%
X144620000Y-86120000D02*
X146000000Y-86120000D01*
X144620000Y-87500000D02*
X144620000Y-86120000D01*
X144620000Y-88770000D02*
X144620000Y-93960000D01*
X144620000Y-88770000D02*
X147380000Y-88770000D01*
X144620000Y-93960000D02*
X147380000Y-93960000D01*
X147380000Y-88770000D02*
X147380000Y-93960000D01*
%TO.C,J5*%
X101170000Y-68230000D02*
X101170000Y-63090000D01*
X101170000Y-70830000D02*
X101170000Y-69500000D01*
X102500000Y-70830000D02*
X101170000Y-70830000D01*
X103830000Y-63090000D02*
X101170000Y-63090000D01*
X103830000Y-68230000D02*
X101170000Y-68230000D01*
X103830000Y-68230000D02*
X103830000Y-63090000D01*
D12*
%TO.C,U2*%
X110720000Y-52500000D02*
X121789000Y-52500000D01*
X110720000Y-52500000D02*
X139230000Y-52500000D01*
X110720000Y-103450000D02*
X110720000Y-52500000D01*
X110720000Y-103450000D02*
X110720000Y-52500000D01*
X110720000Y-103450000D02*
X116090000Y-103450000D01*
X116090000Y-103450000D02*
X133780000Y-103450000D01*
X121789000Y-52500000D02*
X128500000Y-52500000D01*
X128500000Y-52500000D02*
X139230000Y-52500000D01*
X133780000Y-103450000D02*
X139230000Y-103450000D01*
X139230000Y-52500000D02*
X139230000Y-103450000D01*
X139230000Y-52500000D02*
X139230000Y-103450000D01*
X139230000Y-103450000D02*
X110720000Y-103450000D01*
D13*
X110250000Y-62460000D02*
G75*
G02*
X110050000Y-62460000I-100000J0D01*
G01*
X110050000Y-62460000D02*
G75*
G02*
X110250000Y-62460000I100000J0D01*
G01*
%TD*%
M02*
